<svg width="1252" height="940" viewBox="0 0 1252 940" fill="none" xmlns="http://www.w3.org/2000/svg">
<g clip-path="url(#clip0)">
<path d="M372.721 709.096C402.815 713.811 432.834 718.91 462.777 724.393C482.53 728.012 502.769 731.992 519.802 742.749C525.696 746.467 531.395 751.599 532.237 758.507C533.176 766.172 527.444 773.344 520.547 776.568C513.418 779.282 505.797 780.404 498.203 779.857L301.383 781.075C259.674 781.338 214.209 780.318 181.892 753.507C176.381 749.46 172.151 743.87 169.716 737.42C168.566 734.183 168.444 730.662 169.368 727.351C170.292 724.04 172.214 721.107 174.865 718.965C178.575 716.899 182.745 715.834 186.976 715.873L275.995 708.865" fill="#6C91B2"/>
<path d="M342.12 693.174C358.732 689.358 355.461 713.241 359.833 722.123C362.589 726.637 366.044 730.67 370.066 734.065C374.142 737.472 376.811 742.308 377.546 747.618C377.629 748.609 377.427 749.604 376.963 750.48C376.158 751.524 375.008 752.237 373.725 752.487C364.266 755.314 354.096 754.299 345.358 749.658C341.268 747.686 337.876 744.481 335.643 740.48C333.823 736.196 332.96 731.556 333.118 726.893C332.826 716.925 328.325 696.299 342.12 693.174Z" fill="#FDB9A9"/>
<path d="M356.789 742.355C356.789 742.355 403.97 744.395 383.99 759.428C364.01 774.462 334.186 755.777 331.272 752.323C328.357 748.869 330.754 743.013 330.754 743.013L356.789 742.355Z" fill="#68E1FD"/>
<path d="M333.344 748.967C337.554 754.164 359.703 761.138 369.515 760.448C379.327 759.757 388.135 755.085 387.164 748.638C386.192 742.19 368.868 727.189 365.629 727.255C362.391 727.32 359.768 734.92 353.227 736.532C350.298 737.017 347.296 736.737 344.503 735.718C341.71 734.7 339.219 732.976 337.262 730.709C336.662 729.882 335.801 729.29 334.822 729.032C333.843 728.775 332.807 728.867 331.887 729.294C330.549 732.449 329.983 735.887 330.237 739.312C330.49 742.738 331.557 746.05 333.344 748.967V748.967Z" fill="white"/>
<path d="M285.256 702.615C301.869 698.7 298.598 722.55 302.97 731.433C305.689 735.974 309.15 740.012 313.202 743.374C317.281 746.789 319.94 751.641 320.65 756.961C320.745 757.949 320.554 758.944 320.1 759.823C319.294 760.867 318.144 761.58 316.862 761.83C307.388 764.623 297.221 763.61 288.462 759C284.395 756.994 281.012 753.797 278.748 749.822C276.927 745.539 276.064 740.899 276.222 736.236C275.801 726.169 271.461 705.609 285.256 702.615Z" fill="#FDB9A9"/>
<path d="M299.926 751.533C299.926 751.533 347.107 753.573 327.127 768.64C307.147 783.707 277.323 764.988 274.538 761.534C271.753 758.08 273.987 752.224 273.987 752.224L299.926 751.533Z" fill="#68E1FD"/>
<path d="M276.481 758.079C280.69 763.31 302.84 770.284 312.652 769.56C322.464 768.836 331.272 764.231 330.3 757.783C329.329 751.335 312.004 736.334 308.766 736.367C305.528 736.4 302.905 744.065 296.364 745.644C293.427 746.114 290.42 745.818 287.627 744.782C284.834 743.746 282.347 742.005 280.399 739.723C279.795 738.901 278.931 738.316 277.952 738.064C276.974 737.813 275.94 737.91 275.024 738.341C273.669 741.503 273.094 744.954 273.348 748.393C273.602 751.832 274.677 755.157 276.481 758.079V758.079Z" fill="white"/>
<path d="M328.001 485.231L305.852 722.09L273.89 718.076C261.261 660.243 264.37 487.271 264.37 487.271L328.001 485.231Z" fill="#473F47"/>
<path d="M305.852 478.816L328.001 715.675L360.027 711.662C378.323 561.717 363.266 468.388 363.266 468.388L305.852 478.816Z" fill="#473F47"/>
<path d="M360.416 393.119C360.837 388.777 361.97 384.467 362.424 379.961C363.466 371.02 363.292 361.976 361.906 353.084C360.408 343.609 357.606 334.396 353.583 325.713C349.892 318.213 343.221 315.022 335.741 311.272C329.469 307.827 322.67 305.48 315.631 304.33C310.664 303.863 305.656 304.14 300.768 305.153C285.71 308.081 265.859 315.976 255.432 328.181C247.725 337.26 246.819 350.222 246.559 362.229C246.236 378.678 246.559 395.324 247.563 411.871C247.563 414.272 247.855 416.674 248.049 419.042C249.409 437.201 250.899 456.019 255.983 473.553C257.569 479.046 259.221 484.573 264.273 487.501C276.027 494.475 294.064 490.626 306.791 488.85C323.694 486.415 341.019 483.849 356.012 475.526C359.118 474.15 361.634 471.687 363.104 468.585C364.431 464.835 362.845 460.821 361.711 457.005C356.627 440.096 360.545 422.299 360.545 405.028C360.545 401.903 360.157 398.679 360.157 395.554C360.32 394.753 360.406 393.937 360.416 393.119V393.119Z" fill="white"/>
<path opacity="0.1" d="M330.171 320.252C330.392 326.072 330.176 331.901 329.523 337.688C329.523 343.017 330.009 348.313 329.75 353.61C329.269 362.596 326.207 371.242 320.942 378.48L362.391 369.631C363.246 369.558 364.038 369.144 364.593 368.479C364.891 367.707 364.891 366.85 364.593 366.078L360.999 349.629C359.747 341.388 356.943 333.469 352.741 326.305C348.083 320.062 342.05 315.014 335.125 311.567C333.571 310.745 328.293 306.863 326.803 309.462C326.35 310.581 329.944 318.311 330.171 320.252Z" fill="#020202"/>
<path d="M351.284 361.407C353.356 360.093 355.718 359.326 358.155 359.177C360.593 359.027 363.029 359.5 365.241 360.551C367.416 361.67 369.25 363.37 370.545 365.468C371.841 367.566 372.548 369.984 372.592 372.46C372.388 375.83 371.267 379.076 369.353 381.836C368.344 383.676 366.952 385.27 365.273 386.507C362.602 388.115 359.481 388.775 356.4 388.382C353.639 388.25 350.94 387.497 348.499 386.178C344.872 384.106 340.145 378.184 341.375 373.546C343.419 368.59 346.869 364.365 351.284 361.407V361.407Z" fill="#FDB9A9"/>
<path opacity="0.1" d="M293.417 471.678C295.919 465.202 297.193 458.304 297.173 451.347C296.743 444.76 295.757 438.222 294.226 431.806L283.443 379.566C281.468 369.993 277.193 323.641 262.815 329.069C258.787 330.807 255.186 333.427 252.269 336.742C249.353 340.058 247.193 343.986 245.944 348.248C243.488 356.785 242.47 365.683 242.933 374.565C243.192 397.593 247.693 421.148 250.607 444.011C251.708 452.663 253.036 484.803 264.305 487.633C266.507 488.225 268.677 489.343 270.781 489.738C274.57 490.429 285.936 495.035 290.891 493.521C291.297 493.423 291.68 493.241 292.014 492.986C292.348 492.732 292.627 492.41 292.834 492.041C295.748 486.218 291.053 474.77 291.053 468.223C291.561 457.56 295.825 447.438 303.067 439.702C311.009 431.372 320.029 424.179 329.879 418.319L343.124 409.601C345.267 407.894 347.857 406.864 350.572 406.64C352.407 406.997 354.273 407.173 356.141 407.166C359.023 406.673 360.74 403.646 361.776 400.883C364.339 394.237 365.529 387.127 365.273 379.993C365.311 379.533 365.253 379.069 365.102 378.632C364.951 378.196 364.712 377.797 364.399 377.46C363.935 377.213 363.418 377.083 362.893 377.083C362.369 377.083 361.852 377.213 361.387 377.46L319.744 390.619C313.581 393.123 306.929 394.137 300.314 393.58C293.838 392.494 287.361 387.297 287.361 380.619" fill="#020202"/>
<path d="M251.352 332.819C237.687 355.847 232.926 382.954 228.425 409.404C227.649 412.634 227.517 415.99 228.037 419.273C228.883 422.181 230.464 424.814 232.623 426.909C234.782 429.004 237.443 430.489 240.342 431.214C246.155 432.599 252.163 432.922 258.088 432.168C270.846 431.313 285.904 430.195 296.72 422.727C300.411 420.161 303.714 416.97 307.503 414.503C311.19 412.29 315.02 410.334 318.966 408.647C326.513 405.089 333.712 400.815 340.468 395.883C342.802 394.434 344.749 392.423 346.135 390.027C348.337 385.586 346.621 380.158 344.872 375.586C344.805 375.051 344.633 374.535 344.368 374.068C344.103 373.601 343.75 373.192 343.328 372.865C342.907 372.538 342.425 372.299 341.912 372.161C341.399 372.024 340.864 371.992 340.339 372.066C339.75 372.128 339.184 372.331 338.687 372.658C320.468 378.145 301.903 382.366 283.119 385.29C277.938 386.08 280.205 380.356 280.885 377.362C281.986 373.184 282.892 368.973 283.605 364.697C284.271 358.52 283.439 352.272 281.182 346.497C278.924 340.723 275.309 335.598 270.652 331.569C268.258 329.292 265.224 327.831 261.973 327.391C259.927 327.489 257.924 328.022 256.094 328.958C254.265 329.893 252.649 331.208 251.352 332.819V332.819Z" fill="white"/>
<path d="M327.936 280.579C327.895 276.039 327.625 271.504 327.127 266.993C326.706 263.045 326.091 259.064 325.313 255.183C325.284 254.026 325.005 252.891 324.496 251.856C323.986 250.821 323.26 249.913 322.367 249.195C316.378 245.44 309.455 243.511 302.419 243.636C298.251 243.055 294.024 244.144 290.633 246.674C287.242 249.204 284.954 252.975 284.253 257.189C284.124 258.038 284.059 258.896 284.058 259.755C282.99 269.624 285.548 279.494 286.973 289.527C288.067 297.149 288.468 304.858 288.171 312.555C291.845 315.052 296.075 316.578 300.476 316.996C302.536 316.989 304.58 316.645 306.532 315.976C307.621 315.74 308.581 315.094 309.219 314.167C309.52 313.348 309.599 312.462 309.446 311.601C309.322 310.795 309.247 309.982 309.219 309.167V309.167C308.901 304.628 308.987 300.07 309.478 295.547C309.481 295.171 309.62 294.808 309.867 294.527C310.173 294.429 310.501 294.429 310.806 294.527H312.037C314.254 294.758 316.49 294.758 318.707 294.527C321.375 294.263 323.853 293.01 325.67 291.008C327.688 287.944 328.497 284.221 327.936 280.579V280.579Z" fill="#FDB9A9"/>
<path d="M323.111 281.237C322.658 280.513 321.946 279.691 321.168 279.954C320.391 280.217 320.326 280.809 320.1 281.401C319.241 283.832 317.92 286.067 316.214 287.981C315.217 289.158 314.135 290.258 312.976 291.271L310.774 293.244C312.764 293.994 314.844 294.47 316.959 294.659C318.011 294.744 319.07 294.607 320.067 294.256C321.065 293.905 321.98 293.348 322.755 292.619C323.606 291.648 324.285 290.535 324.763 289.33C325.374 288.224 325.8 287.024 326.026 285.777C326.104 285.179 326.045 284.572 325.854 284.001C325.663 283.43 325.345 282.912 324.925 282.487" fill="#DE9F93"/>
<path d="M318.999 250.938C322.658 250.05 327.904 249.655 329.75 246.135C330.396 244.402 330.471 242.503 329.963 240.723C329.455 238.943 328.391 237.379 326.933 236.266C324.395 233.648 321.278 231.685 317.842 230.541C314.406 229.396 310.75 229.103 307.179 229.687C304.96 230.244 302.711 230.673 300.444 230.97C297.4 231.134 294.421 230.213 291.377 230.115C286.015 230.248 280.86 232.245 276.772 235.773C274.172 238.352 271.242 240.565 268.061 242.352C266.457 243.168 264.63 243.417 262.87 243.06C261.111 242.702 259.519 241.759 258.347 240.378C257.727 242.546 257.577 244.824 257.907 247.055C258.237 249.287 259.039 251.42 260.257 253.307C259.639 253.934 258.824 254.321 257.954 254.399C257.083 254.477 256.214 254.242 255.497 253.735C255.692 259.007 256.89 264.19 259.027 268.999C257.078 269.17 255.116 269.059 253.198 268.67C254.273 271.328 255.853 273.745 257.847 275.783C259.842 277.82 262.213 279.439 264.823 280.546C271.947 283.539 279.881 283.835 285.095 290.086C285.742 290.875 286.39 292.751 287.491 292.948C288.592 293.145 289.369 291.961 289.693 290.908C290.922 286.429 290.602 281.657 288.786 277.388C287.527 275.295 286.783 272.926 286.616 270.479C286.843 268.045 290.081 266.137 291.636 267.584C293.19 269.032 293.449 272.486 295.36 271.795C293.19 264.887 296.007 256.202 302.581 253.471C307.6 251.432 313.138 252.649 318.254 251.136L318.999 250.938Z" fill="#DD8049"/>
<path d="M311.842 294.527C306.68 293.557 301.632 292.036 296.784 289.987C296.331 305.975 309.122 309.298 309.122 309.298C308.803 304.759 308.89 300.201 309.381 295.678C309.384 295.302 309.522 294.939 309.77 294.659C310.075 294.56 310.403 294.56 310.709 294.659H311.842V294.527Z" fill="#DE9F93"/>
<path d="M582.891 468.689C650.762 468.689 705.782 412.794 705.782 343.844C705.782 274.895 650.762 219 582.891 219C515.02 219 460 274.895 460 343.844C460 412.794 515.02 468.689 582.891 468.689Z" fill="white"/>
<path d="M949.646 759.001C930.216 765.58 911.467 774.824 911.985 784.233C912.568 794.76 832.972 796.635 825.168 795.549C826.625 792.26 825.395 786.766 826.755 783.509C797.585 776.534 768.889 767.656 740.844 756.928C703.896 742.947 659.888 740.973 621.029 737.19C534.277 728.637 445.484 730.249 361.128 754.625C342.776 759.554 325.018 766.538 308.183 775.449C303.272 777.649 299.121 781.293 296.266 785.91C291.539 795.253 297.724 806.57 305.463 813.511C317.412 824.268 332.956 829.96 348.337 834.368C398.723 849.035 451.338 854.143 503.546 849.435C526.214 847.395 549.367 843.48 571.905 847.395C594.443 851.31 614.877 862.725 636.929 868.646C658.981 874.568 685.503 873.647 700.917 856.738C704.77 852.527 707.911 847.395 712.866 844.632C719.051 841.145 726.661 842.131 733.72 843.118C799.693 852.415 866.58 852.902 932.677 844.566C938.085 843.875 944.044 842.822 947.411 838.447C949.905 835.157 950.423 830.618 953.143 827.525C956.77 823.347 962.858 823.117 968.46 823.15C1001.09 823.312 1033.68 821.212 1066.03 816.867C1074.58 815.715 1083.42 814.301 1090.61 809.432C1097.8 804.563 1102.78 795.253 1100.06 786.93C1097.93 781.834 1094.34 777.503 1089.76 774.495C1061.53 752.652 1024.51 744.131 989.379 748.737C975.891 751.097 962.606 754.529 949.646 759.001V759.001Z" fill="#6C91B3"/>
<path d="M596.807 765.415C596.807 773.047 622.454 779.232 654.092 779.232C685.729 779.232 711.344 773.047 711.344 765.415C711.57 762.547 711.57 759.665 711.344 756.796C707.264 750.217 682.847 751.566 654.092 751.566C626.405 751.566 602.28 750.48 596.807 756.796C596.467 759.659 596.467 762.553 596.807 765.415V765.415Z" fill="#833B3F"/>
<path d="M654.092 770.646C685.711 770.646 711.344 764.445 711.344 756.796C711.344 749.147 685.711 742.947 654.092 742.947C622.472 742.947 596.84 749.147 596.84 756.796C596.84 764.445 622.472 770.646 654.092 770.646Z" fill="#68E1FD"/>
<path d="M654.092 770.646C685.711 770.646 711.344 764.445 711.344 756.796C711.344 749.147 685.711 742.947 654.092 742.947C622.472 742.947 596.84 749.147 596.84 756.796C596.84 764.445 622.472 770.646 654.092 770.646Z" fill="#833B3F"/>
<path d="M972.864 786.569C1004.48 786.569 1030.12 780.368 1030.12 772.719C1030.12 765.07 1004.48 758.869 972.864 758.869C941.244 758.869 915.612 765.07 915.612 772.719C915.612 780.368 941.244 786.569 972.864 786.569Z" fill="#4C506D"/>
<path d="M660.665 626.886H647.389V757.751H660.665V626.886Z" fill="#041316"/>
<path d="M660.665 626.886H647.389V672.087H660.665V626.886Z" fill="url(#paint0_linear)"/>
<path d="M819.533 750.25V770.186H749.328C749.328 770.186 753.441 754.889 781.257 750.25L790.357 742.717L819.533 750.25Z" fill="#68E1FD"/>
<path d="M819.533 750.25V770.186H749.328C749.328 770.186 753.441 754.889 781.257 750.25L790.357 742.717L819.533 750.25Z" fill="url(#paint1_linear)"/>
<path d="M822.739 770.152H747.061V775.251H822.739V770.152Z" fill="#68E1FD"/>
<path d="M978.401 657.777H967.391V761.073H978.401V657.777Z" fill="#4C506D"/>
<path d="M915.709 772.62C915.709 780.252 941.356 786.47 972.961 786.47C1004.57 786.47 1030.25 780.252 1030.25 772.62C1030.44 769.75 1030.44 766.871 1030.25 764.001C1026.17 757.422 1001.75 758.77 972.961 758.77C945.306 758.77 921.149 757.685 915.709 764.001C915.353 766.863 915.353 769.758 915.709 772.62Z" fill="#2F3554"/>
<path d="M972.864 777.949C1004.48 777.949 1030.12 771.749 1030.12 764.1C1030.12 756.451 1004.48 750.25 972.864 750.25C941.244 750.25 915.612 756.451 915.612 764.1C915.612 771.749 941.244 777.949 972.864 777.949Z" fill="#4C506D"/>
<path d="M955.41 638.959H1050.13L1072.8 513.95C1073.5 510.042 1072.64 506.012 1070.42 502.743C1068.2 499.475 1064.79 497.235 1060.94 496.515C1060.04 496.356 1059.11 496.278 1058.19 496.285H993.427C989.983 496.286 986.649 497.51 984 499.745C981.351 501.98 979.554 505.084 978.919 508.522L955.41 638.959Z" fill="#4C506D"/>
<path d="M930.184 638.959H1024.9L1047.57 513.95C1048.27 510.042 1047.41 506.012 1045.19 502.743C1042.97 499.475 1039.56 497.235 1035.72 496.515C1034.84 496.356 1033.95 496.278 1033.06 496.285H968.298C964.855 496.286 961.52 497.51 958.871 499.745C956.222 501.98 954.425 505.084 953.791 508.522L930.184 638.959Z" fill="#2F3554"/>
<path d="M1032.19 620.109H963.926C953.679 620.109 945.371 628.549 945.371 638.959C945.371 649.37 953.679 657.809 963.926 657.809H1032.19C1042.44 657.809 1050.74 649.37 1050.74 638.959C1050.74 628.549 1042.44 620.109 1032.19 620.109Z" fill="#4C506D"/>
<path d="M990.48 620.109H922.218C911.97 620.109 903.663 628.549 903.663 638.959C903.663 649.37 911.97 657.809 922.218 657.809H990.48C1000.73 657.809 1009.03 649.37 1009.03 638.959C1009.03 628.549 1000.73 620.109 990.48 620.109Z" fill="#2F3554"/>
<path d="M1004.89 462.861C1004.21 462.032 1003.49 461.242 1002.72 460.493C991.646 449.702 973.576 450.854 962.307 451.183C952.293 451.644 942.259 451.347 932.289 450.295L927.982 449.768H926.557C919.077 448.946 910.107 449.012 907.613 456.874C904.699 466.25 904.375 477.468 903.048 487.205C899.032 516.286 896.798 544.643 895.6 573.79C894.466 599.548 928.176 601.588 946.278 601.588C952.418 601.742 958.561 601.368 964.639 600.469C970.209 599.515 975.26 597.18 980.83 596.127C983.72 595.824 986.463 594.682 988.731 592.837C991.808 589.811 991.808 584.843 991.808 580.501C991.703 569.411 992.592 558.333 994.463 547.407C995.467 541.979 997.021 536.682 997.96 531.287C999.019 526.876 1000.49 522.58 1002.36 518.457C1010.04 498.752 1016.09 476.546 1004.89 462.861Z" fill="#A986BA"/>
<path d="M868.787 465.493C869.438 462.997 870.536 460.644 872.025 458.552C875.522 454.111 881.74 453.157 887.31 452.729C889.933 452.499 893.074 452.729 894.337 454.999C894.917 456.296 895.087 457.745 894.822 459.144C894.024 463.971 893.613 468.856 893.592 473.75C897.256 471.384 901.237 469.567 905.411 468.355C906.512 467.993 917.684 466.71 917.846 468.355C918.462 475.395 918.721 482.468 918.721 489.508C918.956 492.068 918.684 494.65 917.922 497.102C917.161 499.554 915.924 501.826 914.284 503.785C908.379 512.19 901.782 520.07 894.563 527.34C886.814 535.176 876.352 539.616 865.419 539.709C863.723 539.98 861.987 539.822 860.366 539.248C858.745 538.674 857.288 537.703 856.125 536.419C855.093 534.511 854.632 532.339 854.798 530.169C854.824 523.955 855.322 517.752 856.287 511.615C859.116 495.899 863.299 480.466 868.787 465.493V465.493Z" fill="#A986BA"/>
<path d="M878.081 479.047C878.631 474.967 878.081 465.427 881.319 462.894L881.902 462.565C882.609 462.22 883.377 462.019 884.161 461.976C884.945 461.933 885.73 462.048 886.47 462.314C887.211 462.58 887.892 462.992 888.475 463.526C889.058 464.06 889.531 464.706 889.868 465.427C890.362 467.191 890.473 469.044 890.192 470.855C889.905 475.243 890.025 479.649 890.548 484.014C890.872 486.646 891.714 489.738 894.207 490.593C895.106 490.811 896.039 490.844 896.95 490.692C897.862 490.539 898.735 490.204 899.518 489.705C903.89 487.565 907.962 484.843 911.629 481.613C912.438 480.922 913.475 480.132 914.478 480.494C915.083 480.793 915.581 481.276 915.903 481.876L942.586 523.721C944.821 527.241 946.828 532.504 944.303 535.3C941.777 538.097 937.114 537.143 933.616 535.597C923.322 531.015 914.089 524.291 906.512 515.858C905.99 515.165 905.281 514.64 904.472 514.345C903.905 514.327 903.34 514.425 902.812 514.635C902.283 514.844 901.801 515.159 901.396 515.562C896.563 519.214 891.389 522.377 885.949 525.004C881.902 526.879 876.235 528.293 873.709 524.346C872.674 522.212 872.433 519.771 873.029 517.47L878.081 479.047Z" fill="#A986BA"/>
<path d="M976.296 489.705C978.21 484.679 981.367 480.238 985.461 476.81C987.53 475.103 990.043 474.045 992.694 473.765C995.344 473.484 998.018 473.994 1000.39 475.231C1006.67 479.113 1007.19 488.028 1006.38 495.462C1005.25 506.017 1002.97 516.411 999.579 526.451C997.895 531.419 995.175 536.321 993.686 541.222C992.487 545.269 992.326 549.611 991.095 553.855C987.999 564.377 986.321 575.278 986.108 586.258C986.176 587.698 985.933 589.135 985.396 590.469C985.1 591.123 984.589 591.652 983.95 591.964C983.312 592.276 982.586 592.353 981.899 592.18C981.088 591.787 980.411 591.157 979.956 590.37C973.155 581.455 961.271 578.527 950.261 577.212C937.308 575.6 924.355 575.304 911.24 574.514C905.897 574.185 899.291 572.573 898.449 567.277C898.324 565.74 898.624 564.198 899.317 562.826C900.009 561.454 901.066 560.306 902.367 559.513C905.011 557.974 907.927 556.98 910.949 556.585C922.542 554.381 934.685 552.539 944.335 545.663C940.835 544.617 937.606 542.797 934.879 540.334C941.097 544.479 951.07 530.958 955.539 527.504C959.492 524.301 962.792 520.346 965.254 515.859C969.723 507.865 972.54 498.324 976.296 489.705Z" fill="#A986BA"/>
<path d="M942.619 458.651C944.032 458.32 945.515 458.519 946.796 459.21C948.071 459.904 949.495 460.265 950.941 460.263C951.014 460.373 951.069 460.496 951.103 460.624C951.518 461.525 951.755 462.5 951.799 463.494C951.843 464.487 951.694 465.48 951.36 466.415C951.026 467.35 950.514 468.209 949.853 468.942C949.192 469.676 948.396 470.27 947.508 470.691V470.691C946.722 470.97 945.971 471.346 945.274 471.809C944.761 472.452 944.387 473.197 944.175 473.996C943.963 474.795 943.918 475.63 944.043 476.448C944.303 490.1 940.352 503.424 937.243 516.714C933.584 532.176 931.058 548.229 933.39 563.987C933.551 564.823 933.551 565.684 933.39 566.52C933.124 567.094 932.763 567.617 932.321 568.066L925.424 575.929C923.384 572.639 918.688 571.619 917.587 567.968C917.319 566.894 917.242 565.779 917.36 564.678C918.585 549.985 921.088 535.432 924.841 521.188C928.309 504.89 932.941 488.871 938.7 473.257C938.993 472.691 939.117 472.051 939.057 471.415C938.924 470.892 938.693 470.401 938.377 469.967C936.466 466.678 939.575 459.835 942.619 458.651Z" fill="#68E1FD"/>
<path d="M977.689 451.051C967.974 450.163 958.421 449.571 948.804 449.242C942.327 449.045 933.973 447.334 928.014 449.867C929.46 449.943 930.899 450.119 932.321 450.394C942.294 451.413 952.325 451.71 962.34 451.282C973.641 450.92 991.678 449.768 1002.79 460.559C996.859 453.519 986.95 451.874 977.689 451.051Z" fill="white"/>
<path d="M969.334 421.576C969.772 421.968 970.32 422.212 970.901 422.271C971.482 422.33 972.067 422.202 972.572 421.905C971.212 429.372 970.079 435.919 973.512 443.255C974.772 446.409 977.186 448.944 980.247 450.328C973.841 451.675 967.613 453.784 961.692 456.611C957.865 458.323 953.73 459.208 949.549 459.21C949.128 459.21 941.744 457.532 942.845 455.92C948.707 447.17 944.011 432.662 944.011 432.662C948.91 434.123 954.171 433.659 958.748 431.361C963.326 429.063 966.885 425.101 968.719 420.26C968.789 420.751 969.003 421.21 969.334 421.576Z" fill="#8C6239"/>
<path d="M963.02 365.849C963.02 365.849 923.254 363.019 922.509 391.113C922.351 396.933 922.861 402.751 924.031 408.45C924.42 410.457 924.906 412.398 925.456 414.273C930.572 431.412 941.874 442.992 955.701 438.847C979.826 431.675 995.208 373.185 963.02 365.849Z" fill="#A67C52"/>
<path d="M974.386 413.45C975.873 412.048 976.827 410.159 977.082 408.115C977.336 406.07 976.875 403.999 975.778 402.265C975.428 401.702 974.964 401.22 974.418 400.851C973.73 400.494 972.962 400.325 972.191 400.359C971.419 400.394 970.669 400.631 970.014 401.048C968.946 401.64 967.521 403.844 966.193 402.463C965.88 402.066 965.661 401.602 965.555 401.105C965.448 400.608 965.456 400.094 965.578 399.601C965.905 396.87 967.034 394.303 968.816 392.232C967.771 391.883 966.819 391.295 966.034 390.514C965.248 389.732 964.649 388.778 964.282 387.725C960.61 388.497 956.848 388.729 953.111 388.416C952.216 388.402 951.334 388.201 950.52 387.823C948.609 386.869 947.832 384.534 946.116 383.185C943.713 382.003 941.001 381.635 938.377 382.132C935.721 382.132 932.451 381.145 932.062 378.481C929.695 379.489 927.032 379.505 924.653 378.525C922.275 377.545 920.375 375.649 919.368 373.25C918.137 373.721 916.813 373.886 915.506 373.731C914.199 373.577 912.947 373.107 911.855 372.362C911.151 371.398 910.684 370.277 910.492 369.093C910.301 367.908 910.391 366.694 910.754 365.552C911.694 360.519 913.993 355.124 918.72 353.314C915.968 351.834 916 347.886 916.421 344.761C916.459 343.851 916.703 342.961 917.134 342.162C918.429 340.024 921.408 340.09 923.61 339.235C925.812 338.379 927.593 336.603 929.763 335.55C931.932 334.497 935.041 334.596 936.077 336.767C938.919 335.058 942.067 333.939 945.339 333.478C946.974 333.275 948.632 333.552 950.118 334.274C951.604 334.997 952.856 336.136 953.726 337.557C955.339 336.634 957.127 336.073 958.972 335.912C959.897 335.855 960.816 336.099 961.596 336.607C962.376 337.116 962.976 337.863 963.311 338.741C963.3 338.952 963.342 339.162 963.433 339.352C963.523 339.541 963.66 339.705 963.829 339.827C964.002 339.925 964.198 339.976 964.396 339.976C964.594 339.976 964.789 339.925 964.962 339.827C967.515 338.833 970.304 338.649 972.961 339.3C974.274 339.657 975.454 340.4 976.353 341.436C977.252 342.472 977.829 343.755 978.013 345.123C981.164 346.047 984.066 347.69 986.497 349.926C987.807 350.876 988.813 352.197 989.389 353.724C989.965 355.251 990.085 356.916 989.735 358.512C991.828 360.689 993.047 363.581 993.155 366.622C993.263 369.663 992.251 372.636 990.318 374.961C990.914 375.246 991.402 375.723 991.706 376.317C992.01 376.911 992.114 377.59 992.002 378.25C991.752 379.574 991.21 380.823 990.415 381.902C990.153 382.243 989.995 382.655 989.962 383.086C989.962 383.613 990.545 384.007 990.933 384.369C991.888 385.404 992.401 386.782 992.358 388.2C992.316 389.618 991.722 390.961 990.706 391.936C990.332 392.318 989.893 392.63 989.411 392.857C990.272 393.517 990.981 394.359 991.489 395.324C991.998 396.29 992.295 397.356 992.358 398.449C992.358 398.987 992.241 399.519 992.015 400.006C991.789 400.492 991.461 400.922 991.052 401.265C990.644 401.608 990.166 401.854 989.653 401.987C989.139 402.121 988.604 402.137 988.084 402.035C988.543 403.259 988.686 404.582 988.498 405.877C988.311 407.173 987.801 408.399 987.015 409.437C985.04 412.003 982.935 411.147 980.538 412.266C978.142 413.384 977.041 417.003 975.39 418.845C975.228 417.003 974.839 415.227 974.386 413.45Z" fill="#2F3554"/>
<path d="M890.354 580.271L835.822 608.661L790.486 741.894L817.849 759.001L871.507 648.401C871.507 648.401 921.57 632.906 935.106 628.399C948.642 623.893 965.481 581.126 965.481 581.126C904.31 580.699 890.354 580.271 890.354 580.271Z" fill="#2F3554"/>
<path d="M933.584 584.778L879.085 613.168L840.971 768.738L870.115 776.271L914.738 652.842C914.738 652.842 964.768 637.347 978.304 632.84C991.84 628.333 988.666 589.35 988.666 589.35C965.254 573.066 933.584 584.778 933.584 584.778Z" fill="#4C506D"/>
<path d="M988.569 457.335C980.053 455.262 959.037 500.594 959.037 500.594L925.132 465.986L904.926 473.717C904.926 473.717 935.236 549.38 960.429 542.209C985.623 535.037 1009.36 480.823 1009.36 480.823C1012.56 471.513 997.118 459.407 988.569 457.335Z" fill="#A986BA"/>
<path d="M886.111 433.781C883.717 435.888 881.776 438.475 880.412 441.38C878.906 444.416 877.712 447.602 876.85 450.887C876.039 453.41 875.753 456.076 876.008 458.717C876.146 460.027 876.584 461.287 877.287 462.395C877.99 463.503 878.938 464.429 880.056 465.099C881.782 465.786 883.678 465.898 885.471 465.419C887.264 464.94 888.86 463.895 890.03 462.434C892.26 459.42 893.728 455.895 894.304 452.17C894.814 448.443 895.907 444.822 897.542 441.446C898.906 439.826 899.772 437.836 900.036 435.722C899.291 428.287 889.576 430.886 886.111 433.781Z" fill="#8C6239"/>
<path d="M919.336 461.085C920.89 469.046 912.309 472.237 905.735 470.691C903.755 470.299 901.892 469.443 900.295 468.191C896.506 465.131 895.308 459.868 892.815 455.657C891.066 452.696 888.637 450.229 886.921 447.268C885.946 445.843 885.345 444.189 885.175 442.462C885.005 440.734 885.271 438.992 885.95 437.399C888.087 433.451 893.3 432.629 897.769 432.629C900.057 432.399 902.366 432.726 904.505 433.583C906.764 434.857 908.626 436.749 909.88 439.044C914.252 445.786 917.451 453.241 919.336 461.085V461.085Z" fill="#A67C52"/>
<path d="M329.005 592.377C329.005 620.504 469.447 643.335 642.693 643.335C815.939 643.335 956.349 620.504 956.349 592.377C956.349 591.193 956.835 577.08 956.349 575.929C945.404 549.414 808.75 541.42 642.693 541.42C480.263 541.42 345.067 550.236 329.005 575.929C327.936 577.64 329.005 590.601 329.005 592.377Z" fill="#68E1FD"/>
<path d="M956.349 592.377C956.349 620.504 815.939 643.335 642.693 643.335C469.447 643.335 329.005 620.504 329.005 592.377C329.005 589.087 328.681 585.798 329.005 582.508C329.363 580.492 330.135 578.575 331.272 576.883C332.296 573.61 334.412 570.804 337.256 568.948C340.1 567.092 343.492 566.303 346.848 566.717C354.101 566.717 361.344 566.871 368.576 567.178C378.564 567.524 388.529 568.38 398.433 569.744C405.816 570.829 413.167 572.343 420.615 572.803C435.996 573.691 451.248 570.04 466.63 569.514C467.767 569.415 468.912 569.481 470.03 569.711C471.261 570.101 472.445 570.631 473.56 571.29C479.114 574.187 485.414 575.268 491.597 574.382C547.392 578.231 603.025 574.382 658.56 567.803C704.964 562.309 751.336 555.631 798.031 554.414C846.865 553.131 895.672 557.836 943.396 568.428C949.872 569.843 957.676 573.001 958 579.712C958.227 584.186 953.434 588.725 956.349 592.377Z" fill="#833B3F"/>
<path d="M642.693 626.886C815.938 626.886 956.381 604.072 956.381 575.928C956.381 547.785 815.938 524.971 642.693 524.971C469.448 524.971 329.005 547.785 329.005 575.928C329.005 604.072 469.448 626.886 642.693 626.886Z" fill="#833B3F"/>
<path d="M870.147 776.272V796.174H799.942C799.942 796.174 804.055 780.91 831.871 776.272L840.97 768.738L870.147 776.272Z" fill="#8B2430"/>
<path d="M870.147 776.272V796.174H799.942C799.942 796.174 804.055 780.91 831.871 776.272L840.97 768.738L870.147 776.272Z" fill="url(#paint2_linear)"/>
<path d="M873.32 796.174H797.643V801.273H873.32V796.174Z" fill="#68E1FD"/>
<path d="M973.997 446.939C975.052 446.609 976.18 446.609 977.235 446.939C978.887 447.663 979.599 449.768 981.283 450.426C977.397 454.012 972.151 455.689 967.715 458.519C963.108 461.786 958.986 465.708 955.474 470.164C951.297 467.828 951.556 461.216 947.897 458.091C950.502 457.392 952.982 456.282 955.248 454.801C957.075 453.953 958.83 452.951 960.494 451.808C964.671 449.374 969.245 447.725 973.997 446.939V446.939Z" fill="white"/>
<path d="M938.118 449.439C936.79 450.629 935.595 451.964 934.556 453.42L930.411 458.782C930.203 458.992 930.041 459.244 929.935 459.522C929.83 459.8 929.782 460.097 929.795 460.394C929.92 460.737 930.162 461.022 930.478 461.197C930.793 461.373 931.16 461.426 931.512 461.348C932.198 461.145 932.869 460.892 933.519 460.591C935.055 460.29 936.623 460.201 938.182 460.328C940.103 460.131 941.982 459.632 943.752 458.848C943.864 458.83 943.97 458.788 944.065 458.726C944.16 458.664 944.241 458.582 944.303 458.486C944.367 458.283 944.367 458.064 944.303 457.861C944.209 455.98 944.496 454.099 945.145 452.334C945.598 451.018 946.472 449.505 945.598 448.156C944.011 445.557 939.769 448.09 938.118 449.439Z" fill="white"/>
<path d="M846.929 550.269L765.325 553.986L790.357 583.593L880.185 575.928L846.929 550.269Z" fill="white"/>
<path d="M507.691 550.269C512.257 550.729 587.934 572.968 587.934 572.968L544.153 607.214L457.563 583.593L507.691 550.269Z" fill="white"/>
<path d="M865.678 709.424H854.668V812.721H865.678V709.424Z" fill="#4C506D"/>
<path d="M865.678 709.424H854.668V812.721H865.678V709.424Z" fill="url(#paint3_linear)"/>
<path d="M802.889 824.366C802.889 832.031 828.536 838.216 860.173 838.216C891.811 838.216 917.425 832.031 917.425 824.366C917.62 821.497 917.62 818.617 917.425 815.747C913.345 809.168 888.929 810.55 860.173 810.55C832.486 810.55 808.361 809.464 802.889 815.747C802.532 818.609 802.532 821.505 802.889 824.366Z" fill="#2F3554"/>
<path d="M860.173 829.597C891.793 829.597 917.425 823.397 917.425 815.748C917.425 808.099 891.793 801.898 860.173 801.898C828.554 801.898 802.921 808.099 802.921 815.748C802.921 823.397 828.554 829.597 860.173 829.597Z" fill="#4C506D"/>
<path d="M809.074 498.423C772.061 489.705 753.473 444.11 717.335 432.168C716.168 431.709 714.874 431.709 713.708 432.168C712.725 432.829 711.985 433.8 711.603 434.932L703.345 453.354L752.923 511.746C756.625 516.424 760.792 520.701 765.358 524.51C775.979 532.735 789.677 535.432 802.824 537.867C810.628 539.347 818.756 540.762 826.366 538.525C836.307 535.597 847.738 521.648 844.468 510.332C840.906 497.93 819.274 500.825 809.074 498.423Z" fill="white"/>
<path d="M754.704 687.845C754.541 693.921 755.645 699.963 757.942 705.576H758.266C764.742 705.412 770.96 705.576 777.307 705.971C787.854 706.834 798.343 708.328 808.718 710.445C813.51 711.366 818.432 712.353 823.095 713.34C827.758 714.327 832.227 715.248 836.793 716.136C845.472 717.88 853.826 719.426 861.922 720.544C872.408 716.036 881.768 709.202 889.317 700.543C890.159 699.589 890.936 698.635 891.714 697.681C892.718 696.403 893.658 695.074 894.531 693.7C897.159 689.843 898.867 685.416 899.518 680.772C899.712 678.886 899.647 676.981 899.324 675.113C897.644 668.709 893.687 663.165 888.216 659.553L886.5 658.303C874.949 650.165 861.105 646.066 847.058 646.625C845.878 646.592 844.698 646.658 843.529 646.822C836.033 647.384 828.606 648.662 821.347 650.638C809.818 653.632 798.29 657.843 786.924 661.527C778.499 663.797 770.44 667.287 762.994 671.89C760.852 673.294 758.985 675.09 757.489 677.186C755.582 680.398 754.616 684.095 754.704 687.845V687.845Z" fill="#3E3E54"/>
<path d="M755.708 706.464C757.197 714.195 758.493 722.024 759.658 729.821C762.365 748.03 764.17 766.366 765.066 784.759C765.295 786.474 765.128 788.219 764.58 789.858C762.67 794.694 756.161 794.924 751.045 794.891C745.928 794.858 739.225 796.964 739.355 802.161C739.355 806.208 743.759 808.576 747.515 809.892C758.782 813.815 770.645 815.675 782.553 815.386C784.009 815.454 785.464 815.219 786.827 814.695C794.89 811.077 788.511 801.536 787.669 796.01C786.439 787.95 789.515 779.068 791.425 771.37C795.927 753.441 807.843 737.223 807.325 718.142C806.94 715.718 807.386 713.233 808.588 711.102C810.822 708.306 820.246 712.813 823.225 713.438C827.791 714.392 832.357 715.346 836.923 716.234C861.436 721.103 884.104 726.663 909.33 721.893C910.823 721.72 912.261 721.215 913.539 720.412C915.053 719.063 916.117 717.27 916.583 715.28C920.131 704.031 919.189 691.816 913.96 681.265C907.808 668.928 898.061 664.06 886.63 658.237C873.482 651.46 862.375 646.361 847.188 646.789C846.008 646.756 844.827 646.822 843.658 646.986C836.14 647.609 828.693 648.931 821.411 650.934C802.889 655.802 760.241 662.645 753.149 684.456C750.915 691.331 753.732 696.858 755.092 703.536C755.287 704.391 755.481 705.411 755.708 706.464Z" fill="#3E3E54"/>
<path d="M755.708 706.464C757.197 714.195 758.493 722.024 759.658 729.821C762.365 748.03 764.17 766.366 765.066 784.759C765.295 786.474 765.128 788.219 764.58 789.858C762.67 794.694 756.161 794.924 751.045 794.891C745.928 794.858 739.225 796.964 739.355 802.161C739.355 806.208 743.759 808.576 747.515 809.892C758.782 813.815 770.645 815.675 782.553 815.386C784.009 815.454 785.464 815.219 786.827 814.695C794.89 811.077 788.511 801.536 787.669 796.01C786.439 787.95 789.515 779.068 791.425 771.37C795.927 753.441 807.843 737.223 807.325 718.142C806.94 715.718 807.386 713.233 808.588 711.102C810.822 708.306 820.246 712.813 823.225 713.438C827.791 714.392 832.357 715.346 836.923 716.234C861.436 721.103 884.104 726.663 909.33 721.893C910.823 721.72 912.261 721.215 913.539 720.412C915.053 719.063 916.117 717.27 916.583 715.28C920.131 704.031 919.189 691.816 913.96 681.265C907.808 668.928 898.061 664.06 886.63 658.237C873.482 651.46 862.375 646.361 847.188 646.789C846.008 646.756 844.827 646.822 843.658 646.986C836.14 647.609 828.693 648.931 821.411 650.934C802.889 655.802 760.241 662.645 753.149 684.456C750.915 691.331 753.732 696.858 755.092 703.536C755.287 704.391 755.481 705.411 755.708 706.464Z" fill="url(#paint4_linear)"/>
<path d="M720.799 708.503C714.781 715.943 709.981 724.318 706.584 733.308C702.147 743.374 676.662 851.277 675.755 851.046L695.023 856.211C717.235 823.919 735.758 789.165 750.235 752.618C754.412 742.124 754.639 741.137 765.876 738.9C775.752 736.959 785.629 734.821 795.408 732.321C814.526 727.778 833.284 721.797 851.527 714.425C862.579 710.056 873.159 704.544 883.1 697.976C884.513 696.831 885.786 695.517 886.889 694.062C887.401 693.413 887.856 692.719 888.249 691.989C889.999 689.137 890.837 685.804 890.645 682.449C890.607 681.555 890.455 680.671 890.192 679.817C889.485 677.89 888.514 676.074 887.31 674.422C885.442 671.861 883.071 669.721 880.347 668.139C873.498 663.109 865.423 660.083 857 659.388C851.333 659.059 845.698 660.211 840.096 659.914C835.077 659.618 831.612 656.822 827.143 656.131C823.749 655.728 820.309 656.042 817.04 657.052C809.55 659.615 802.326 662.921 795.473 666.922L755.028 687.449H754.736L746.641 691.561C738.156 695.904 728.442 700.213 721.706 707.188L720.799 708.503Z" fill="#3E3E54"/>
<path d="M647.291 845.881C643.751 846.125 640.324 847.255 637.318 849.171C635.849 850.165 634.739 851.617 634.155 853.308C633.571 855 633.544 856.838 634.079 858.546C635.305 860.853 637.27 862.664 639.649 863.678C653.723 870.658 669.363 873.734 684.984 872.594C687.195 872.728 689.389 872.127 691.234 870.883C692.821 869.245 693.853 867.136 694.181 864.863C695.601 860.743 695.903 856.312 695.055 852.033C692.465 843.381 683.009 845.256 676.274 844.894C666.603 844.334 656.903 844.664 647.291 845.881V845.881Z" fill="#3E3E54"/>
<path d="M558.402 609.286V621.096H1027.95C1028.69 617.149 1029.37 613.201 1030.02 609.286H558.402Z" fill="#68E1FD"/>
<path d="M558 609V636L874 636C874.546 626.975 903.525 617.95 904 609H558Z" fill="#833B3F"/>
<path d="M789.223 464.473C787.604 466.513 785.046 468.717 785.985 471.053C786.536 472.336 787.96 472.961 789.061 473.816C791.85 476.353 793.557 479.892 793.822 483.685C794.08 487.447 794.955 491.138 796.412 494.607C797.18 496.313 798.507 497.695 800.167 498.517C801.826 499.34 803.716 499.55 805.512 499.114C807.552 498.291 809.462 496.219 811.535 496.877C813.607 497.535 813.834 499.311 814.773 500.726C816.058 502.366 817.774 503.605 819.722 504.297C821.67 504.99 823.771 505.109 825.783 504.64C829.795 503.63 833.577 501.842 836.923 499.377C838.369 498.635 839.581 497.495 840.42 496.087C840.907 494.705 840.907 493.193 840.42 491.811C838.764 487.66 836.334 483.873 833.263 480.658C828.201 474.096 824.809 466.368 823.387 458.157C822.383 452.466 822.124 446.051 818.173 441.939C812.765 436.346 801.043 437.563 795.506 442.63C789.223 447.86 794.21 457.927 789.223 464.473Z" fill="url(#paint5_linear)"/>
<path d="M793.854 437.564C794.669 438.968 795.859 440.109 797.287 440.854C800.104 442.235 802.565 443.913 805.318 445.426C807.929 446.898 809.896 449.319 810.822 452.203C812.377 457.467 810.11 463.651 812.247 468.652C812.992 469.639 814.611 468.652 815.194 467.73C815.777 466.809 816.004 465.263 816.975 464.441C818.627 463.224 820.958 464.803 821.897 466.645C822.892 468.83 823.031 471.318 822.285 473.603C821.539 475.889 819.965 477.8 817.882 478.948C818.303 480.593 820.472 481.054 822.124 480.659C823.7 480.032 825.359 479.644 827.046 479.508C830.9 479.869 832.875 485.33 836.761 485.528C839.384 485.528 841.424 483.159 842.946 480.922L847.026 475.034C847.641 473.926 848.357 472.88 849.163 471.908C850.135 470.954 851.851 470.724 852.596 469.638C853.341 468.553 852.175 466.349 853.049 464.934C853.466 464.432 853.985 464.028 854.571 463.75C855.836 462.902 856.781 461.643 857.252 460.18C857.722 458.716 857.69 457.133 857.162 455.69C856.962 455.354 856.872 454.963 856.903 454.572C856.903 454.045 857.583 453.749 858.036 453.453C859.356 452.363 860.253 450.833 860.568 449.134C860.882 447.436 860.593 445.679 859.752 444.176C857.982 441.222 855.552 438.731 852.66 436.906C846.702 432.432 840.485 427.234 838.736 419.931C838.471 417.943 837.926 416.004 837.117 414.174C836.66 413.294 835.888 412.626 834.96 412.307C834.032 411.989 833.019 412.045 832.13 412.463C832.604 408.643 832.34 404.766 831.353 401.048C831.153 400.143 830.767 399.291 830.22 398.548C829.632 397.931 828.894 397.484 828.08 397.252C827.266 397.021 826.406 397.014 825.589 397.232C823.957 397.693 822.421 398.451 821.055 399.469C821.055 397.627 818.659 396.903 816.846 396.969C813.395 397.097 810.037 398.131 807.097 399.97C804.157 401.809 801.737 404.391 800.072 407.463C799.818 408.01 799.491 408.52 799.1 408.976C798.34 409.601 797.487 410.101 796.574 410.457C795.196 411.265 794.013 412.375 793.111 413.707C792.209 415.038 791.611 416.558 791.361 418.155C790.875 421.36 790.875 424.621 791.361 427.826C791.522 430.308 791.979 432.76 792.721 435.13C792.987 435.99 793.369 436.809 793.854 437.564Z" fill="#DD8049"/>
<path d="M830.317 492.666C826.278 494.936 822.384 497.463 818.659 500.232C817.482 501.092 816.517 502.219 815.842 503.522C815.476 504.197 815.284 504.956 815.284 505.726C815.284 506.497 815.476 507.255 815.842 507.93C817.137 509.805 819.566 508.819 821.444 507.93C830.051 503.965 839.332 501.731 848.775 501.351C849.424 501.394 850.072 501.25 850.645 500.936C851.218 500.621 851.692 500.15 852.013 499.574C852.176 498.911 852.193 498.22 852.065 497.55C851.936 496.879 851.664 496.245 851.268 495.693C845.472 485.791 837.765 488.159 830.317 492.666Z" fill="white"/>
<path d="M813.834 615.898C807.358 602.246 804.119 588.1 799.489 573.856C788.835 582.31 787.766 597.772 778.116 608.102C776.712 609.715 775.074 611.102 773.259 612.214C766.782 615.964 757.521 614.319 750.397 613.826C746.764 613.554 743.334 612.021 740.682 609.483C739.033 607.314 738.124 604.658 738.092 601.917C737.509 592.541 742.755 583.955 747.806 576.126L782.747 521.747C783.967 519.315 785.735 517.211 787.907 515.604C790.079 513.998 792.594 512.935 795.246 512.503C817.336 505.83 839.794 500.491 862.505 496.515C865.905 495.754 869.4 495.532 872.867 495.857C882.582 497.304 889.058 506.614 893.818 515.233C919.4 560.269 937.535 611.424 934.685 663.27C934.626 666.08 934.19 668.869 933.39 671.56C931.694 675.585 928.951 679.065 925.456 681.627C914.057 690.772 899.032 694.193 884.525 694.325C862.828 694.522 834.235 687.745 818.044 672.053C808.912 663.105 818.044 657.71 822.448 649.026C827.92 637.742 818.756 625.998 813.834 615.898Z" fill="#221629"/>
<path d="M921.926 579.415C920.384 572.516 918.16 565.793 915.288 559.348C902.756 568.658 893.365 586.389 888.702 601.555C884.039 616.72 880.218 632.412 870.697 644.88L860.4 641.262L858.489 647.841C857 653.072 861.307 658.401 860.853 663.664C860.348 666.374 859.082 668.877 857.21 670.873C855.337 672.869 852.936 674.273 850.296 674.915C844.232 676.096 837.969 675.642 832.13 673.599C828.308 672.826 824.695 671.221 821.541 668.895C819.976 667.721 818.779 666.111 818.095 664.26C817.411 662.41 817.269 660.397 817.688 658.467C816.449 659.231 815.498 660.394 814.987 661.772C814.476 663.15 814.435 664.662 814.87 666.066C815.782 668.868 817.496 671.331 819.792 673.139C826.981 679.718 835.983 683.008 845.051 686.561C849.287 688.304 853.61 689.82 858.004 691.101C868.215 693.427 878.659 694.531 889.123 694.39C895.6 694.555 899.259 693.535 902.076 687.186C906.091 678.073 906.383 667.809 907.354 657.875C910.229 631.381 915.101 605.151 921.926 579.415V579.415Z" fill="url(#paint6_linear)"/>
<path d="M887.31 674.685C887.31 677.514 887.31 680.409 887.504 683.337C887.698 686.265 887.893 689.226 888.249 692.252C888.289 692.926 888.376 693.597 888.508 694.259C888.767 696.331 889.091 698.404 889.447 700.542C889.462 700.579 889.47 700.618 889.47 700.657C889.47 700.697 889.462 700.736 889.447 700.773L890.127 704.326C889.123 710.771 889.931 717.374 892.458 723.373V723.373C898.223 723.581 903.995 723.493 909.751 723.11C920.95 722.404 932.032 720.395 942.781 717.122C953.787 711.401 963.946 704.137 972.961 695.542C975.455 693.381 977.446 690.684 978.79 687.647C979.758 684.354 980.088 680.902 979.761 677.482C979.41 658.494 981.833 639.559 986.95 621.293C988.084 617.313 989.347 613.365 990.707 609.483C992.261 605.042 993.945 600.7 995.888 596.325C1000.32 586.159 1005.6 576.257 1007.71 565.368C1008.81 559.417 1008.87 553.315 1007.9 547.341C1007.84 546.277 1007.44 545.262 1006.77 544.446C1006.25 544.037 1005.66 543.737 1005.02 543.562C1004.39 543.387 1003.73 543.341 1003.08 543.426C989.573 543.788 977.171 551.65 963.959 553.953C957.126 555.137 950.002 554.808 943.364 556.815C934.043 560.101 926.104 566.519 920.858 575.007C917.888 579.365 915.257 583.952 912.989 588.725C909.524 595.897 906.286 602.739 903.274 609.385C901.526 613.365 899.874 617.313 898.352 621.195C893.394 633.461 889.936 646.299 888.054 659.421V659.651C887.49 664.641 887.241 669.663 887.31 674.685V674.685Z" fill="#3E3E54"/>
<path d="M887.31 674.685C887.31 677.514 887.31 680.409 887.504 683.337C887.698 686.265 887.893 689.226 888.249 692.252C888.289 692.926 888.376 693.597 888.508 694.259C888.767 696.331 889.091 698.404 889.447 700.542C889.462 700.579 889.47 700.618 889.47 700.657C889.47 700.697 889.462 700.736 889.447 700.773L890.127 704.326C889.123 710.771 889.931 717.374 892.458 723.373V723.373C898.223 723.581 903.995 723.493 909.751 723.11C920.95 722.404 932.032 720.395 942.781 717.122C953.787 711.401 963.946 704.137 972.961 695.542C975.455 693.381 977.446 690.684 978.79 687.647C979.758 684.354 980.088 680.902 979.761 677.482C979.41 658.494 981.833 639.559 986.95 621.293C988.084 617.313 989.347 613.365 990.707 609.483C992.261 605.042 993.945 600.7 995.888 596.325C1000.32 586.159 1005.6 576.257 1007.71 565.368C1008.81 559.417 1008.87 553.315 1007.9 547.341C1007.84 546.277 1007.44 545.262 1006.77 544.446C1006.25 544.037 1005.66 543.737 1005.02 543.562C1004.39 543.387 1003.73 543.341 1003.08 543.426C989.573 543.788 977.171 551.65 963.959 553.953C957.126 555.137 950.002 554.808 943.364 556.815C934.043 560.101 926.104 566.519 920.858 575.007C917.888 579.365 915.257 583.952 912.989 588.725C909.524 595.897 906.286 602.739 903.274 609.385C901.526 613.365 899.874 617.313 898.352 621.195C893.394 633.461 889.936 646.299 888.054 659.421V659.651C887.49 664.641 887.241 669.663 887.31 674.685V674.685Z" fill="url(#paint7_linear)"/>
<path d="M702.924 419.404C695.671 413.154 688.158 406.739 679.091 403.712C678.506 403.404 677.856 403.243 677.197 403.243C676.537 403.243 675.887 403.404 675.302 403.712C674.728 404.222 674.35 404.921 674.234 405.686C674.057 407.335 674.258 409.003 674.82 410.561C675.381 412.119 676.289 413.524 677.472 414.667C679.806 416.961 681.91 419.484 683.754 422.2C680.363 421.579 676.877 421.736 673.554 422.661C672.898 422.792 672.299 423.125 671.837 423.615C671.617 424.053 671.515 424.544 671.544 425.036C671.572 425.527 671.729 426.002 671.999 426.411C673.314 428.405 675.085 430.046 677.16 431.192C679.236 432.338 681.554 432.955 683.916 432.991C684.802 433.021 685.663 433.294 686.409 433.78C687.996 435.129 686.96 437.728 687.251 439.767C687.483 440.748 687.933 441.662 688.568 442.438C689.202 443.213 690.004 443.831 690.91 444.241C692.659 445.163 694.634 445.623 696.48 446.413C699.158 448.183 702.116 449.474 705.223 450.229C711.344 450.492 717.464 442.235 717.529 436.379C717.658 429.997 707.166 423.056 702.924 419.404Z" fill="url(#paint8_linear)"/>
<path d="M351.802 707.977H340.792V811.274H351.802V707.977Z" fill="#4C506D"/>
<path d="M351.802 707.977H340.792V811.274H351.802V707.977Z" fill="url(#paint9_linear)"/>
<path d="M403.549 822.92C403.549 830.552 377.902 836.737 346.265 836.737C314.627 836.737 289.013 830.552 289.013 822.92C288.818 820.05 288.818 817.17 289.013 814.301C293.093 807.721 317.509 809.07 346.265 809.07C373.952 809.07 398.077 807.985 403.549 814.301C403.905 817.162 403.905 820.058 403.549 822.92Z" fill="#2F3554"/>
<path d="M346.265 828.15C377.884 828.15 403.517 821.949 403.517 814.3C403.517 806.651 377.884 800.451 346.265 800.451C314.645 800.451 289.013 806.651 289.013 814.3C289.013 821.949 314.645 828.15 346.265 828.15Z" fill="#4C506D"/>
<path d="M451.734 686.364C451.897 692.44 450.793 698.483 448.496 704.095H448.172C441.696 704.095 435.511 704.095 429.164 704.49C418.606 705.356 408.106 706.85 397.72 708.964C392.928 709.885 388.006 710.872 383.375 711.859L369.645 714.688C360.966 716.399 352.612 717.978 344.516 719.063C334.046 714.527 324.691 707.697 317.121 699.062L314.724 696.2C313.753 694.95 312.814 693.634 311.939 692.252C309.288 688.404 307.568 683.975 306.92 679.324C306.71 677.438 306.775 675.531 307.115 673.665C308.792 667.252 312.749 661.696 318.222 658.072L319.938 656.822C331.489 648.684 345.333 644.585 359.38 645.144C360.56 645.111 361.74 645.177 362.909 645.341C370.415 645.904 377.853 647.181 385.124 649.157C396.619 652.151 408.148 656.362 419.514 660.046C427.935 662.342 435.993 665.842 443.444 670.442C445.592 671.824 447.461 673.611 448.949 675.705C450.856 678.917 451.822 682.614 451.734 686.364Z" fill="#3E3E54"/>
<path d="M450.763 704.984C449.241 712.747 447.946 720.544 446.78 728.373C445.193 739.131 444.513 750.085 442.764 760.777C441.016 771.469 441.404 782.061 439.526 792.589C438.685 796.547 438.229 800.58 438.166 804.629C438.664 810.218 440.065 815.687 442.311 820.814C442.02 821.505 441.016 821.439 440.271 821.242C436.075 820.284 432.009 818.815 428.16 816.867C424.268 814.902 421.183 811.605 419.449 807.557C417.15 801.536 419.19 795.187 418.931 789.003C418.242 782.476 416.897 776.039 414.916 769.791C410.414 751.862 398.53 735.644 399.016 716.596C399.433 714.161 398.986 711.655 397.753 709.523C395.518 706.727 386.095 711.267 383.148 711.859L369.418 714.688C344.905 719.524 322.269 725.084 297.044 720.347C295.543 720.142 294.099 719.627 292.802 718.833C291.288 717.484 290.224 715.691 289.758 713.701C286.259 702.446 287.199 690.25 292.381 679.686C298.533 667.382 308.28 662.481 319.711 656.658C332.859 650.078 343.966 644.782 359.153 645.21C360.333 645.177 361.513 645.243 362.683 645.407C370.212 646.027 377.67 647.349 384.962 649.355C403.452 654.224 446.1 661.066 453.191 682.877C455.426 689.785 452.641 695.279 451.281 701.99C451.151 702.944 450.957 703.964 450.763 704.984Z" fill="url(#paint10_linear)"/>
<path d="M417.895 804.53C418.107 804.29 418.359 804.089 418.639 803.938C419.805 803.444 420.874 804.793 421.554 805.912C424.42 810.684 428.707 814.406 433.794 816.537C434.41 816.869 435.124 816.962 435.802 816.801C436.547 816.505 436.935 815.649 437.551 815.09C438.003 814.732 438.534 814.49 439.098 814.387C439.662 814.284 440.242 814.322 440.789 814.498C441.895 814.903 442.933 815.48 443.865 816.208C446.778 818.158 449.519 820.359 452.058 822.788C453.353 824.104 454.616 826.078 453.839 827.722C453.32 828.609 452.504 829.275 451.54 829.598C447.987 830.738 444.155 830.599 440.692 829.203C434.215 827.032 428.419 822.985 422.072 820.452C421.641 820.228 421.163 820.115 420.68 820.123C420.317 820.18 419.959 820.268 419.611 820.386C419.034 820.317 418.481 820.115 417.993 819.796C417.505 819.476 417.095 819.048 416.794 818.544C415.172 816.511 414.382 813.922 414.587 811.314C414.792 808.705 415.976 806.276 417.895 804.53V804.53Z" fill="#3E3E54"/>
<path d="M481.235 708.899C484.018 716.238 485.349 724.063 485.153 731.926C485.153 752.059 479.648 771.732 474.272 791.141C472.006 799.3 470.095 807.59 467.44 815.781C465.497 821.637 462.906 825.979 466.63 832.065C467.435 833.209 468.181 834.395 468.865 835.618C469.168 836.251 469.287 836.96 469.207 837.659C469.126 838.359 468.85 839.02 468.411 839.566C466.954 840.914 464.655 840.026 462.841 839.302C458.436 838.023 454.11 836.474 449.888 834.664C441.922 830.091 444.999 824.301 446.262 817.294C447.816 808.84 448.852 800.188 449.727 791.635C451.888 774.221 451.451 756.576 448.431 739.295C448.196 737.249 447.399 735.311 446.132 733.703C444.497 732.329 442.484 731.502 440.368 731.334C411.224 726.104 382.727 724.525 354.911 713.076C343.87 708.708 333.301 703.196 323.371 696.628C321.932 695.501 320.647 694.184 319.549 692.713C319.064 692.055 318.61 691.364 318.189 690.674C316.469 687.797 315.634 684.463 315.793 681.101C315.862 680.211 316.014 679.33 316.246 678.469C316.985 676.561 317.965 674.758 319.161 673.107C321.029 670.536 323.399 668.386 326.123 666.79C332.975 661.789 341.031 658.765 349.438 658.04C355.105 657.744 360.74 658.895 366.342 658.566C371.361 658.303 374.826 655.474 379.295 654.783C382.689 654.38 386.129 654.693 389.398 655.704C396.883 658.281 404.105 661.586 410.965 665.573L436.061 678.304C447.686 684.193 461.967 688.173 472.168 696.365C476.204 699.677 479.328 703.995 481.235 708.899Z" fill="url(#paint11_linear)"/>
<path d="M454.713 665.968C465.343 672.648 474.153 681.93 480.337 692.965C486.52 704 489.88 716.435 490.107 729.13C469.488 744.859 445.722 755.797 420.485 761.172C417.61 762.027 414.553 762.027 411.677 761.172C409.304 759.947 407.217 758.22 405.557 756.106C382.436 731.992 341.731 734.394 317.444 711.465C308.248 702.78 302.257 687.812 309.511 677.383C312.465 673.7 316.136 670.676 320.294 668.501C339.173 657.086 361.42 640.012 384.249 643.96C407.079 647.907 434.992 653.895 454.713 665.968Z" fill="#68E1FD"/>
<path d="M463.618 747.026C452.058 734.492 449.921 716.004 448.366 698.864C445.073 701.794 441.346 704.181 437.324 705.937L435.349 700.608C435.292 700.165 435.067 699.763 434.722 699.486C434.377 699.21 433.94 699.081 433.503 699.128C433.261 699.166 433.029 699.255 432.823 699.391C416.349 705.014 399.102 707.946 381.723 708.076C375.247 708.076 368.026 707.582 362.585 703.7C357.145 699.818 354.328 691.462 358.311 686.067C344.276 689.952 329.978 692.778 315.534 694.522C314.939 694.501 314.347 694.601 313.791 694.815C313.235 695.03 312.726 695.355 312.296 695.772C311.195 697.219 312.296 699.325 313.235 700.805C324.813 717.282 342.221 728.565 361.808 732.288C367.281 733.308 396.296 744.295 409.313 761.566C410.225 762.663 411.423 763.476 412.769 763.912C414.115 764.349 415.555 764.391 416.923 764.033L463.618 747.026Z" fill="url(#paint12_linear)"/>
<path d="M288.689 699.753C284.317 699.753 279.233 700.477 276.999 704.26C276.361 705.451 276.027 706.786 276.027 708.142C276.027 709.498 276.361 710.832 276.999 712.024C278.32 714.396 280.335 716.293 282.763 717.452C285.848 718.87 289.121 719.823 292.478 720.281C306.37 722.946 320.262 725.61 334.186 728.11C341.213 729.361 348.305 730.578 355.364 731.696C360.999 732.584 366.18 735.381 371.912 736.499C377.643 737.618 385.253 738.407 390.046 734.262C391.541 732.95 392.674 731.265 393.332 729.373C393.991 727.481 394.153 725.447 393.802 723.472C393.605 722.091 392.994 720.805 392.053 719.788C391.305 719.094 390.453 718.528 389.528 718.11C379.306 713.529 368.54 710.322 357.501 708.57L334.834 703.931C327.966 702.024 320.96 700.671 313.882 699.885C305.495 699.556 297.205 699.523 288.689 699.753Z" fill="#3E3E54"/>
<path d="M288.689 699.753C284.317 699.753 279.233 700.477 276.999 704.26C276.361 705.451 276.027 706.786 276.027 708.142C276.027 709.498 276.361 710.832 276.999 712.024C278.32 714.396 280.335 716.293 282.763 717.452C285.848 718.87 289.121 719.823 292.478 720.281C306.37 722.946 320.262 725.61 334.186 728.11C341.213 729.361 348.305 730.578 355.364 731.696C360.999 732.584 366.18 735.381 371.912 736.499C377.643 737.618 385.253 738.407 390.046 734.262C391.541 732.95 392.674 731.265 393.332 729.373C393.991 727.481 394.153 725.447 393.802 723.472C393.605 722.091 392.994 720.805 392.053 719.788C391.305 719.094 390.453 718.528 389.528 718.11C379.306 713.529 368.54 710.322 357.501 708.57L334.834 703.931C327.966 702.024 320.96 700.671 313.882 699.885C305.495 699.556 297.205 699.523 288.689 699.753Z" fill="url(#paint13_linear)"/>
<path d="M648 608V620H265.687C265.081 616 264.527 612 264 608H648Z" fill="#833B3F"/>
<path d="M411.062 440.886C409.482 439.679 407.737 438.715 405.881 438.024C400.343 435.919 392.604 435.787 388.2 440.327C383.796 444.867 383.99 450.854 383.019 456.578C381.558 464.783 378.158 472.505 373.11 479.08C370.033 482.276 367.601 486.053 365.953 490.199C365.501 491.599 365.501 493.109 365.953 494.508C366.796 495.925 368.021 497.067 369.483 497.798C372.817 500.263 376.589 502.05 380.59 503.062C381.907 503.436 383.294 503.479 384.632 503.187C385.969 502.895 387.216 502.276 388.265 501.384C388.982 500.517 389.907 499.852 390.951 499.454C391.994 499.057 393.122 498.939 394.223 499.114C396.498 499.809 398.846 500.228 401.218 500.364C403.045 500.075 404.753 499.262 406.141 498.021C407.529 496.78 408.54 495.162 409.054 493.357C410.095 489.763 410.672 486.048 410.771 482.304C411.872 472.434 415.596 462.96 416.178 453.025C416.415 450.726 416.069 448.404 415.174 446.28C414.278 444.155 412.863 442.298 411.062 440.886V440.886Z" fill="url(#paint14_linear)"/>
<path d="M355.202 493.883C354.806 494.435 354.534 495.069 354.406 495.74C354.277 496.411 354.295 497.102 354.458 497.765C354.777 498.344 355.25 498.82 355.822 499.14C356.395 499.459 357.044 499.61 357.696 499.574C367.152 499.99 376.436 502.281 385.026 506.318C386.905 507.206 389.333 508.16 390.629 506.318C390.994 505.637 391.186 504.874 391.186 504.098C391.186 503.322 390.994 502.558 390.629 501.877C389.947 500.632 388.981 499.571 387.811 498.785C384.095 495.993 380.2 493.455 376.154 491.186C368.673 486.712 360.966 484.343 355.202 493.883Z" fill="white"/>
<path d="M384.055 647.612C388.427 656.494 397.591 661.889 388.427 670.804C372.235 686.66 343.642 693.273 321.946 693.075C307.438 693.075 292.413 689.555 281.014 680.41C277.52 677.842 274.786 674.349 273.113 670.311C272.279 667.639 271.842 664.856 271.818 662.053C268.968 610.109 287.07 558.987 312.652 514.017C317.509 505.398 323.889 496.121 333.603 494.673C337.07 494.316 340.57 494.538 343.966 495.331C366.678 499.281 389.138 504.609 411.224 511.286C414.161 511.946 416.93 513.223 419.352 515.037C421.088 516.628 422.573 518.481 423.756 520.53L458.664 574.909C463.748 582.772 468.962 591.358 468.379 600.7C468.351 603.452 467.441 606.12 465.788 608.3C463.133 610.827 459.703 612.349 456.073 612.609C443.337 614.687 430.302 613.787 417.959 609.977C424.857 604.615 422.687 593.529 418.154 585.897C415.074 580.821 411.265 576.242 406.852 572.31C403.9 586.993 399.112 601.233 392.604 614.682C387.876 624.584 378.518 636.328 384.055 647.612Z" fill="#3266A2"/>
<path d="M417.506 442.498C418.568 439.2 418.68 435.662 417.83 432.3C416.4 427.367 413.912 422.817 410.544 418.977C404.067 411.049 395.616 404.107 385.609 402.528C358.538 398.021 327.062 426.083 316.764 449.275C310.288 463.848 308.345 480.001 304.718 495.594C301.091 511.187 295.23 527.077 283.152 537.308C278.229 541.485 272.239 544.775 269.292 550.466C265.697 557.473 267.802 566.421 272.53 572.672C276.902 578.363 282.472 580.633 288.106 584.35C293.155 588.068 297.18 593.041 299.796 598.792C306.014 610.997 308.442 625.11 315.987 636.492L327.062 630.275C336.582 625.571 345.322 619.389 352.968 611.951C360.254 604.154 365.176 593.265 363.363 582.673C362.294 576.258 358.894 570.468 356.886 564.283C350.669 544.775 364.269 536.979 376.089 525.399C380.115 521.363 383.136 516.412 384.905 510.955C386.673 505.497 387.136 499.691 386.257 494.015C385.143 490.944 385.078 487.581 386.07 484.467C387.062 481.353 389.055 478.668 391.73 476.843C396.781 470.625 392.798 462.598 398.757 456.841C403.387 452.4 410.447 451.874 414.786 446.972C415.992 445.692 416.919 444.167 417.506 442.498V442.498Z" fill="#BF571D"/>
<path d="M284.512 577.968C285.998 571.074 288.168 564.35 290.988 557.9C303.65 567.046 312.911 584.909 317.574 599.943C322.237 614.977 326.058 630.833 335.579 643.301L345.876 639.682L347.787 646.262C349.276 651.46 344.969 656.789 345.423 662.052C345.928 664.762 347.194 667.265 349.066 669.261C350.939 671.257 353.34 672.661 355.979 673.303C362.044 674.484 368.307 674.03 374.146 671.987C377.934 671.236 381.515 669.653 384.638 667.349C386.203 666.167 387.399 664.551 388.082 662.695C388.766 660.84 388.908 658.823 388.491 656.888C389.737 657.653 390.692 658.822 391.204 660.207C391.715 661.592 391.752 663.111 391.309 664.52C390.397 667.322 388.683 669.785 386.387 671.593C379.23 678.172 370.195 681.462 361.128 685.015C356.892 686.747 352.568 688.252 348.175 689.522C337.961 691.831 327.519 692.934 317.056 692.811C310.579 692.811 306.92 691.956 304.103 685.574C300.088 676.461 299.796 666.198 298.825 656.296C296.038 629.852 291.253 603.665 284.512 577.968Z" fill="url(#paint15_linear)"/>
<path d="M319.161 673.238C319.161 676.067 319.161 678.929 318.966 681.857C318.772 684.785 318.545 687.745 318.189 690.805C318.226 691.471 318.15 692.139 317.963 692.779C317.671 694.851 317.38 696.924 316.991 699.062V699.292C316.797 700.444 316.57 701.628 316.343 702.845C317.312 709.302 316.505 715.905 314.012 721.925V721.925C308.247 722.123 302.475 722.024 296.72 721.629C285.519 720.939 274.434 718.93 263.69 715.642V715.642C252.69 709.911 242.531 702.647 233.509 694.062C231.007 691.895 229.016 689.186 227.68 686.133C226.711 682.852 226.381 679.411 226.709 676.001C227.066 656.957 224.632 637.965 219.488 619.648C218.387 615.668 217.124 611.72 215.731 607.806C214.177 603.397 212.493 599.022 210.583 594.647C206.146 584.482 200.868 574.612 198.731 563.691C197.594 557.734 197.495 551.621 198.439 545.63C198.502 544.567 198.899 543.552 199.573 542.735C200.092 542.327 200.685 542.026 201.318 541.851C201.952 541.676 202.613 541.63 203.264 541.715C216.768 542.077 229.17 549.973 242.382 552.242C249.215 553.427 256.339 553.131 262.977 555.137C272.364 558.361 280.37 564.775 285.645 573.297C288.615 577.655 291.246 582.241 293.514 587.015C296.979 594.186 300.217 601.029 303.229 607.674C304.977 611.687 306.467 615.602 308.151 619.517C313.142 631.76 316.602 644.592 318.448 657.71V657.941C318.995 663.02 319.232 668.129 319.161 673.238V673.238Z" fill="#3E3E54"/>
<path d="M319.161 673.238C319.161 676.067 319.161 678.929 318.966 681.857C318.772 684.785 318.545 687.745 318.189 690.805C318.226 691.471 318.15 692.139 317.963 692.779C317.671 694.851 317.38 696.924 316.991 699.062V699.292C316.797 700.444 316.57 701.628 316.343 702.845C317.312 709.302 316.505 715.905 314.012 721.925V721.925C308.247 722.123 302.475 722.024 296.72 721.629C285.519 720.939 274.434 718.93 263.69 715.642V715.642C252.69 709.911 242.531 702.647 233.509 694.062C231.007 691.895 229.016 689.186 227.68 686.133C226.711 682.852 226.381 679.411 226.709 676.001C227.066 656.957 224.632 637.965 219.488 619.648C218.387 615.668 217.124 611.72 215.731 607.806C214.177 603.397 212.493 599.022 210.583 594.647C206.146 584.482 200.868 574.612 198.731 563.691C197.594 557.734 197.495 551.621 198.439 545.63C198.502 544.567 198.899 543.552 199.573 542.735C200.092 542.327 200.685 542.026 201.318 541.851C201.952 541.676 202.613 541.63 203.264 541.715C216.768 542.077 229.17 549.973 242.382 552.242C249.215 553.427 256.339 553.131 262.977 555.137C272.364 558.361 280.37 564.775 285.645 573.297C288.615 577.655 291.246 582.241 293.514 587.015C296.979 594.186 300.217 601.029 303.229 607.674C304.977 611.687 306.467 615.602 308.151 619.517C313.142 631.76 316.602 644.592 318.448 657.71V657.941C318.995 663.02 319.232 668.129 319.161 673.238V673.238Z" fill="url(#paint16_linear)"/>
<path d="M444.092 824.663C444.274 824.406 444.52 824.202 444.804 824.071C446.002 823.578 447.071 824.926 447.719 826.045C450.584 830.818 454.872 834.539 459.959 836.671C460.575 837.002 461.288 837.096 461.967 836.934C462.744 836.638 463.133 835.782 463.716 835.223C464.167 834.865 464.699 834.623 465.263 834.52C465.827 834.417 466.407 834.455 466.954 834.631C468.059 835.016 469.089 835.595 469.998 836.342C472.916 838.282 475.658 840.484 478.191 842.921C479.486 844.237 480.749 846.211 479.972 847.856C479.481 848.746 478.668 849.407 477.705 849.698C474.146 850.857 470.301 850.729 466.824 849.336C460.348 847.165 454.584 843.118 448.237 840.585C447.793 840.367 447.305 840.254 446.812 840.256C446.46 840.313 446.113 840.401 445.776 840.52C445.199 840.45 444.646 840.248 444.158 839.929C443.67 839.61 443.26 839.182 442.959 838.677C441.341 836.64 440.557 834.049 440.768 831.44C440.979 828.831 442.169 826.405 444.092 824.663V824.663Z" fill="#3E3E54"/>
<path d="M539.976 411.838L520.32 416.147V327.588L539.976 323.312V411.838Z" fill="#68E1FD"/>
<path d="M566.174 406.081L546.485 410.39V343.346L566.174 339.07V406.081Z" fill="#68E1FD"/>
<path d="M592.403 400.357L572.747 404.667V283.08L592.403 278.77V400.357Z" fill="#68E1FD"/>
<path d="M618.601 394.6L598.945 398.91V250.972L618.601 246.662V394.6Z" fill="#68E1FD"/>
<path d="M507.367 418.747L632.266 393.252V246.926" stroke="#2F3554" stroke-miterlimit="10"/>
<path d="M324.472 301.008C325.34 301.302 326.185 301.665 326.997 302.094L334.834 306.469C335.203 306.7 335.608 306.867 336.032 306.962C336.48 307.06 336.944 307.06 337.392 306.962C348.467 304.627 348.564 289.889 339.562 284.79C337.85 284.001 336.232 283.019 334.737 281.862C333.573 280.562 332.492 279.188 331.498 277.75C330.942 277.06 330.21 276.539 329.382 276.243C328.554 275.947 327.662 275.888 326.803 276.072C326.081 276.426 325.454 276.952 324.975 277.605C324.496 278.258 324.179 279.018 324.051 279.822C323.826 281.428 323.435 283.005 322.885 284.527C322.377 285.459 321.769 286.33 321.071 287.125C320.059 288.424 319.129 289.786 318.286 291.205C317.317 292.529 316.857 294.166 316.991 295.81C317.243 296.726 317.716 297.563 318.366 298.246C319.016 298.93 319.823 299.438 320.715 299.725C321.849 300.218 323.111 300.547 324.472 301.008Z" fill="#FDB9A9"/>
<path d="M395.486 360.485C396.935 363.065 397.891 365.9 398.303 368.841C398.283 371.714 397.613 374.543 396.344 377.11C395.075 379.677 393.241 381.913 390.985 383.645C384.845 389.073 377.093 392.257 368.965 392.692C366.892 392.901 364.8 392.584 362.877 391.77C360.227 390.059 358.211 387.502 357.145 384.5C347.107 363.512 336.129 337.556 335.125 313.903C334.801 306.567 341.116 293.639 349.6 298.507C358.926 303.87 367.572 317.028 373.984 325.549C382.251 336.458 389.452 348.159 395.486 360.485V360.485Z" fill="white"/>
</g>
<defs>
<linearGradient id="paint0_linear" x1="7556.88" y1="-6049.12" x2="6415.36" y2="-5592.13" gradientUnits="userSpaceOnUse">
<stop offset="0.01"/>
<stop offset="0.08" stop-opacity="0.69"/>
<stop offset="0.21" stop-opacity="0.32"/>
<stop offset="1" stop-opacity="0"/>
</linearGradient>
<linearGradient id="paint1_linear" x1="52875.4" y1="-2397.58" x2="51157.6" y2="-1269.6" gradientUnits="userSpaceOnUse">
<stop offset="0.01"/>
<stop offset="0.08" stop-opacity="0.69"/>
<stop offset="0.21" stop-opacity="0.32"/>
<stop offset="1" stop-opacity="0"/>
</linearGradient>
<linearGradient id="paint2_linear" x1="53921.3" y1="-2203.7" x2="52205.8" y2="-1074.5" gradientUnits="userSpaceOnUse">
<stop offset="0.01"/>
<stop offset="0.08" stop-opacity="0.69"/>
<stop offset="0.21" stop-opacity="0.32"/>
<stop offset="1" stop-opacity="0"/>
</linearGradient>
<linearGradient id="paint3_linear" x1="864.966" y1="811.175" x2="857.449" y2="735.239" gradientUnits="userSpaceOnUse">
<stop stop-opacity="0"/>
<stop offset="0.99"/>
</linearGradient>
<linearGradient id="paint4_linear" x1="45317.5" y1="-25167.3" x2="50138" y2="-10107.9" gradientUnits="userSpaceOnUse">
<stop stop-opacity="0"/>
<stop offset="0.99"/>
</linearGradient>
<linearGradient id="paint5_linear" x1="785.791" y1="471.579" x2="840.776" y2="471.579" gradientUnits="userSpaceOnUse">
<stop stop-color="#E5C5D5"/>
<stop offset="0.42" stop-color="#EAD4D1"/>
<stop offset="1" stop-color="#F0E9CB"/>
</linearGradient>
<linearGradient id="paint6_linear" x1="89014.3" y1="-11040.8" x2="77698.7" y2="-20035.3" gradientUnits="userSpaceOnUse">
<stop offset="0.01"/>
<stop offset="0.08" stop-opacity="0.69"/>
<stop offset="0.21" stop-opacity="0.32"/>
<stop offset="1" stop-opacity="0"/>
</linearGradient>
<linearGradient id="paint7_linear" x1="99845.1" y1="-23222.9" x2="95293.2" y2="-23222.9" gradientUnits="userSpaceOnUse">
<stop stop-opacity="0"/>
<stop offset="0.99"/>
</linearGradient>
<linearGradient id="paint8_linear" x1="10723.8" y1="-8553.47" x2="11379.6" y2="-8553.47" gradientUnits="userSpaceOnUse">
<stop stop-color="#E5C5D5"/>
<stop offset="0.42" stop-color="#EAD4D1"/>
<stop offset="1" stop-color="#F0E9CB"/>
</linearGradient>
<linearGradient id="paint9_linear" x1="7107.55" y1="-7671.83" x2="8306.61" y2="-8983.38" gradientUnits="userSpaceOnUse">
<stop stop-opacity="0"/>
<stop offset="0.99"/>
</linearGradient>
<linearGradient id="paint10_linear" x1="153715" y1="-26574.8" x2="148135" y2="-11102" gradientUnits="userSpaceOnUse">
<stop stop-color="#E5C5D5"/>
<stop offset="0.42" stop-color="#EAD4D1"/>
<stop offset="1" stop-color="#F0E9CB"/>
</linearGradient>
<linearGradient id="paint11_linear" x1="23135.4" y1="-20365.4" x2="30999.1" y2="-12231.3" gradientUnits="userSpaceOnUse">
<stop stop-color="#E5C5D5"/>
<stop offset="0.42" stop-color="#EAD4D1"/>
<stop offset="1" stop-color="#F0E9CB"/>
</linearGradient>
<linearGradient id="paint12_linear" x1="16555.7" y1="-6649.35" x2="21085.2" y2="-12468.9" gradientUnits="userSpaceOnUse">
<stop offset="0.01"/>
<stop offset="0.08" stop-opacity="0.69"/>
<stop offset="0.21" stop-opacity="0.32"/>
<stop offset="1" stop-opacity="0"/>
</linearGradient>
<linearGradient id="paint13_linear" x1="15196.3" y1="-4130.3" x2="14637.5" y2="-2531.4" gradientUnits="userSpaceOnUse">
<stop stop-opacity="0"/>
<stop offset="0.99"/>
</linearGradient>
<linearGradient id="paint14_linear" x1="110481" y1="-11015" x2="109690" y2="-11015" gradientUnits="userSpaceOnUse">
<stop stop-color="#E5C5D5"/>
<stop offset="0.42" stop-color="#EAD4D1"/>
<stop offset="1" stop-color="#F0E9CB"/>
</linearGradient>
<linearGradient id="paint15_linear" x1="35759.9" y1="-11092.4" x2="47061.6" y2="-20063" gradientUnits="userSpaceOnUse">
<stop offset="0.01"/>
<stop offset="0.08" stop-opacity="0.69"/>
<stop offset="0.21" stop-opacity="0.32"/>
<stop offset="1" stop-opacity="0"/>
</linearGradient>
<linearGradient id="paint16_linear" x1="41503.3" y1="-23337.2" x2="46053.7" y2="-23337.2" gradientUnits="userSpaceOnUse">
<stop stop-opacity="0"/>
<stop offset="0.99"/>
</linearGradient>
<clipPath id="clip0">
<rect width="1252" height="940" fill="white"/>
</clipPath>
</defs>
</svg>
