<svg width="50" height="50" viewBox="0 0 50 50" fill="none" xmlns="http://www.w3.org/2000/svg">
<g clip-path="url(#clip0)">
<path fill-rule="evenodd" clip-rule="evenodd" d="M24.9999 -2.40077e-09C11.1957 -1.07514e-09 -0.000122069 11.1917 -0.000122068 25C-0.000122067 38.8062 11.1957 50 24.9999 50C38.8061 50 49.9999 38.8062 49.9999 25C49.9999 11.1917 38.8061 -3.72659e-09 24.9999 -2.40077e-09ZM24.9999 11.4583C16.9457 11.4583 10.4165 17.5042 10.4165 24.9604C10.4165 29.2104 12.5374 33.0021 15.852 35.4771L15.852 40.625L20.8165 37.9C22.1415 38.2667 23.5457 38.4646 24.9999 38.4646C33.054 38.4646 39.5832 32.4187 39.5832 24.9604C39.5832 17.5042 33.054 11.4583 24.9999 11.4583V11.4583ZM26.4499 29.6417L22.7353 25.6812L15.4895 29.6417L23.4603 21.1812L27.2645 25.1417L34.4207 21.1812L26.4499 29.6417V29.6417Z" fill="white"/>
</g>
<defs>
<clipPath id="clip0">
<rect width="50" height="50" fill="white"/>
</clipPath>
</defs>
</svg>
