<svg width="65" height="65" viewBox="0 0 65 65" fill="none" xmlns="http://www.w3.org/2000/svg">
<path d="M17.7937 36.3187C16.7835 36.3187 15.7869 36.14 14.8335 35.7906L15.9358 32.7979C16.5344 33.0173 17.1573 33.1283 17.7937 33.1283C18.4979 33.1283 19.1858 32.9929 19.8358 32.7275L21.0465 35.6796C20.0119 36.1048 18.9177 36.3187 17.7937 36.3187ZM41.275 34.1981L36.7819 31.6387L38.3608 28.8654L42.8567 31.4248L41.275 34.1981V34.1981ZM23.7927 34.144L22.1542 31.4058L26.5931 28.749L28.2317 31.4871L23.7927 34.144ZM34.404 30.3306C33.7458 30.0571 33.0498 29.9162 32.3348 29.9162C31.7119 29.9162 31.0971 30.0246 30.5094 30.2385L29.4233 27.2377C30.3604 26.8992 31.3408 26.7285 32.3348 26.7258C33.4723 26.7258 34.5827 26.9479 35.6308 27.3867L34.404 30.3306V30.3306ZM10.7494 29.8892C9.30042 29.8892 8.125 31.0619 8.125 32.5108C8.125 33.9598 9.30042 35.1325 10.7494 35.1325C12.1983 35.1325 13.3738 33.9571 13.3738 32.5108C13.371 31.0619 12.1983 29.8892 10.7494 29.8892V29.8892ZM47.5177 10.8333L32.5 0L17.4823 10.8333L0 0V54.1667L17.4823 65L32.5 54.1667L47.5177 65L65 54.1667V0L47.5177 10.8333V10.8333ZM59.5833 51.1523L48.75 57.8662V46.0417H46.0417V57.2569L35.2083 49.4433V37.9167H29.7917V49.4406L18.9583 57.2542V43.3333H16.25V57.8635L5.41667 51.1496V9.72833L16.25 16.4423V24.375H18.9583V16.4477L29.7917 8.63146V18.9583H35.2083V8.63146L46.0417 16.4477V21.6667H48.75V16.4423L59.5833 9.72833V51.1523ZM55.9867 37.96L52.4767 34.5096L55.9244 31.0077L54.0069 29.1065L50.5619 32.6137L47.0573 29.1688L45.1533 31.07L48.6633 34.5258L45.2156 38.0358L47.1196 39.9398L50.5781 36.4244L54.0854 39.8775L55.9867 37.96V37.96Z" fill="white"/>
</svg>
