<svg width="80" height="80" viewBox="0 0 80 80" fill="none" xmlns="http://www.w3.org/2000/svg">
<g clip-path="url(#clip0)">
<path d="M58 29.1666V72.5H-2V29.1666H58ZM14.6667 35.8333H4.66667V42.5H14.6667V35.8333ZM51.3333 52.5C51.3333 45.1366 45.3633 39.1666 38 39.1666C30.6367 39.1666 24.6667 45.1366 24.6667 52.5C24.6667 59.8633 30.6367 65.8333 38 65.8333C45.3633 65.8333 51.3333 59.8633 51.3333 52.5ZM38 45.8333C34.32 45.8333 31.3333 48.8233 31.3333 52.5C31.3333 56.1766 34.32 59.1666 38 59.1666C41.68 59.1666 44.6667 56.1766 44.6667 52.5C44.6667 48.8233 41.68 45.8333 38 45.8333ZM20.2867 22.5L25.67 7.70996L69.5167 23.6733L64.6667 37.0066V56.5L78 19.6933L49.5 10L21.6833 -0.833374L13.19 22.5H20.2867Z" fill="#413163"/>
</g>
<defs>
<clipPath id="clip0">
<rect width="80" height="80" fill="white"/>
</clipPath>
</defs>
</svg>
