<svg width="30" height="30" viewBox="0 0 30 30" fill="none" xmlns="http://www.w3.org/2000/svg">
<path d="M30 15.185L28.2987 17.0162L15 4.6625L1.70125 16.9975L0 15.1663L15 1.25L30 15.185ZM25 17.3713L22.5 30H7.5L5 17.3713L15 8.06625L25 17.3713ZM16.25 25C16.25 24.31 15.69 23.75 15 23.75C14.31 23.75 13.75 24.31 13.75 25C13.75 25.69 14.31 26.25 15 26.25C15.69 26.25 16.25 25.69 16.25 25ZM17.5 18.75C17.5 17.3687 16.38 16.25 15 16.25C13.62 16.25 12.5 17.3687 12.5 18.75C12.5 20.1313 13.62 21.25 15 21.25C16.38 21.25 17.5 20.1313 17.5 18.75Z" fill="black"/>
</svg>
