<svg width="50" height="50" viewBox="0 0 50 50" fill="none" xmlns="http://www.w3.org/2000/svg">
<g clip-path="url(#clip0)">
<path fill-rule="evenodd" clip-rule="evenodd" d="M25 -2.40077e-09C11.1958 -1.07514e-09 1.07474e-09 11.1917 2.40077e-09 25C3.72659e-09 38.8062 11.1958 50 25 50C38.8062 50 50 38.8062 50 25C50 11.1917 38.8062 -3.72659e-09 25 -2.40077e-09ZM31.7167 37.2312C32.1083 37.5083 32.6125 37.5771 33.0625 37.4083C33.5104 37.2375 33.8417 36.8521 33.9417 36.3854C34.9979 31.4229 37.5604 18.8604 38.5208 14.3479C38.5937 14.0062 38.4729 13.6521 38.2063 13.425C37.9375 13.1979 37.5667 13.1333 37.2375 13.2542C32.1417 15.1417 16.4479 21.0292 10.0333 23.4021C9.62708 23.5542 9.3625 23.9437 9.375 24.375C9.38958 24.8042 9.67917 25.1771 10.0958 25.3021C12.9729 26.1625 16.7479 27.3604 16.7479 27.3604C16.7479 27.3604 18.5125 32.6896 19.4312 35.3979C19.5479 35.7396 19.8146 36.0062 20.1646 36.0979C20.5167 36.1896 20.8896 36.0937 21.1521 35.8458C22.6292 34.4521 24.9125 32.2958 24.9125 32.2958C24.9125 32.2958 29.2542 35.4771 31.7167 37.2312V37.2312ZM18.3354 26.6854L20.3771 33.4167L20.8312 29.1542C20.8312 29.1542 28.7125 22.0437 33.2083 17.9917C33.3396 17.8729 33.3562 17.6729 33.2479 17.5333C33.1396 17.3938 32.9396 17.3604 32.7917 17.4562C27.5833 20.7812 18.3354 26.6854 18.3354 26.6854V26.6854Z" fill="white"/>
</g>
<defs>
<clipPath id="clip0">
<rect width="50" height="50" fill="white"/>
</clipPath>
</defs>
</svg>
