<svg width="28" height="30" viewBox="0 0 28 30" fill="none" xmlns="http://www.w3.org/2000/svg">
<rect width="28" height="30" fill="#181515"/>
<path fill-rule="evenodd" clip-rule="evenodd" d="M11.0647 19.62L10.2352 18.75L7.25783 22.0088L5.46233 20.1938L4.648 21.08L7.273 23.75L11.0647 19.62ZM11.0647 13.37L10.2352 12.5L7.25783 15.7588L5.46233 13.9437L4.648 14.83L7.273 17.5L11.0647 13.37ZM11.0647 7.12L10.2352 6.25L7.25783 9.50875L5.46233 7.69375L4.648 8.58L7.273 11.25L11.0647 7.12ZM23.3333 21.25H14V22.5H23.3333V21.25ZM23.3333 15H14V16.25H23.3333V15ZM23.3333 8.75H14V10H23.3333V8.75ZM28 2.5H0V27.5H28V2.5ZM26.8333 26.25H1.16667V3.75H26.8333V26.25Z" fill="white"/>
</svg>
