<svg width="348" height="351" viewBox="0 0 348 351" fill="none" xmlns="http://www.w3.org/2000/svg">
<path d="M107.163 71.9409C104.213 59.7425 119.603 51.7742 127.862 61.2235L178.46 119.114C182.247 123.447 188.577 124.481 193.547 121.579L255.797 85.2294C266.054 79.2401 277.847 90.1967 272.627 100.866L238.337 170.953C236.055 175.617 237.032 181.22 240.758 184.837L298.803 241.178C307.642 249.757 299.362 264.492 287.437 261.405L218.117 243.46C212.189 241.925 206.056 245.101 203.887 250.828L178.532 317.793C174.17 329.313 157.359 327.57 155.454 315.4L142.947 235.481C142.144 230.351 138.133 226.319 133.006 225.49L55.9803 213.04C44.2551 211.144 42.1144 195.19 52.9254 190.271L118.539 160.416C123.777 158.033 126.586 152.267 125.233 146.673L107.163 71.9409Z" fill="#615190" fill-opacity="0.85"/>
</svg>
