<svg width="342" height="347" viewBox="0 0 342 347" fill="none" xmlns="http://www.w3.org/2000/svg">
<path d="M212.051 57.1881C219.884 47.383 235.611 54.6633 233.203 66.9802L218.454 142.438C217.35 148.086 220.411 153.722 225.749 155.872L292.618 182.797C303.636 187.234 302.203 203.267 290.572 205.679L214.172 221.522C209.088 222.576 205.258 226.781 204.683 231.942L195.72 312.335C194.356 324.578 177.637 327.063 172.77 315.747L144.48 249.967C142.061 244.342 135.793 241.44 129.939 243.236L61.4795 264.228C49.7027 267.839 40.7801 253.484 49.2312 244.522L104.728 185.671C108.291 181.893 109.02 176.252 106.533 171.693L69.1791 103.19C63.4928 92.7623 74.7902 81.2952 85.3017 86.8253L149.098 120.388C154.191 123.068 160.469 121.754 164.061 117.258L212.051 57.1881Z" fill="#BCF220" fill-opacity="0.42"/>
</svg>
